<svg width="46" height="27" viewBox="0 0 46 27" fill="none" xmlns="http://www.w3.org/2000/svg">
<g clip-path="url(#clip0_22_190)">
<path d="M2.54901e-06 1.51081C0.0457281 1.42475 0.102885 1.33869 0.148611 1.24307C0.502983 0.478103 1.17743 0.0669344 2.1491 0C2.30914 0 2.48061 0 2.64065 0C16.2097 0 29.7788 0 43.3478 0C43.6336 0 43.9194 0 44.1937 0.0478103C45.2797 0.248613 45.9542 0.97533 45.9656 1.95066C45.977 3.11723 45.9656 4.27424 45.9656 5.44081C45.9656 8.45286 45.9656 11.4745 45.9656 14.4865C45.9656 15.8921 45.0739 16.6475 43.3935 16.6475C29.7788 16.6475 16.164 16.6475 2.5492 16.6475C1.22316 16.6475 0.377238 16.1312 -0.0114288 15.0889C2.54901e-06 10.5756 2.54901e-06 6.04322 2.54901e-06 1.51081ZM23.0228 1.28132C16.2326 1.28132 9.43089 1.28132 2.64065 1.28132C1.749 1.28132 1.52038 1.47256 1.52038 2.20884C1.52038 6.29183 1.52038 10.3748 1.52038 14.4483C1.52038 15.1941 1.72614 15.3758 2.64065 15.3758C16.1983 15.3758 29.7559 15.3758 43.3135 15.3758C44.2395 15.3758 44.4452 15.2037 44.4452 14.4196C44.4452 10.3461 44.4452 6.28227 44.4452 2.20884C44.4452 1.42475 44.2509 1.26219 43.3135 1.26219C36.5576 1.28132 29.7902 1.28132 23.0228 1.28132Z" fill="#BDBDBD"/>
<path d="M23.0342 12.8132C29.2415 12.8132 35.4487 12.8132 41.6674 12.8132C41.8731 12.8132 42.0903 12.8227 42.2961 12.8418C42.7076 12.8801 42.8791 13.1191 42.9134 13.4347C42.9477 13.7598 42.6848 14.0084 42.2961 14.0658C42.1246 14.0945 41.9417 14.0945 41.7588 14.0945C29.2529 14.0945 16.7355 14.0945 4.22961 14.0945C3.41799 14.0945 3.08648 13.9128 3.07504 13.4729C3.06361 13.014 3.40655 12.8132 4.22961 12.8132C10.494 12.8132 16.7698 12.8132 23.0342 12.8132Z" fill="#BDBDBD"/>
<path d="M22.9885 11.5318C16.7584 11.5318 10.5397 11.5318 4.30963 11.5318C4.10386 11.5318 3.88667 11.5318 3.6809 11.5127C3.26937 11.4745 3.07504 11.2354 3.07504 10.9199C3.06361 10.6043 3.23508 10.3557 3.64661 10.2983C3.81808 10.2697 4.00098 10.2601 4.18388 10.2601C16.7241 10.2601 29.2643 10.2601 41.8046 10.2601C41.8617 10.2601 41.9189 10.2601 41.9875 10.2601C42.6047 10.2792 42.9363 10.5087 42.9134 10.9199C42.902 11.3215 42.5933 11.5318 41.9875 11.5318C39.0953 11.5318 36.2146 11.5318 33.3225 11.5318C29.8702 11.5318 26.4294 11.5318 22.9885 11.5318Z" fill="#BDBDBD"/>
<path d="M-98.8506 412.468C-98.8506 407.158 -93.7044 402.854 -87.3563 402.854H73.5632C79.9113 402.854 85.0575 407.158 85.0575 412.468V523.037C85.0575 528.347 79.9113 532.652 73.5632 532.652H-87.3563C-93.7044 532.652 -98.8506 528.347 -98.8506 523.037V412.468Z" fill="#BDBDBD"/>
<path d="M-77.0115 437.054C-76.9658 436.968 -76.9087 436.882 -76.8629 436.787C-76.5086 436.022 -75.8341 435.611 -74.8625 435.544C-74.7024 435.544 -74.5309 435.544 -74.3709 435.544C-60.8018 435.544 -47.2328 435.544 -33.6638 435.544C-33.378 435.544 -33.0922 435.544 -32.8178 435.591C-31.7318 435.792 -31.0574 436.519 -31.046 437.494C-31.0345 438.661 -31.046 439.818 -31.046 440.984C-31.046 443.996 -31.046 447.018 -31.046 450.03C-31.046 451.436 -31.9376 452.191 -33.618 452.191C-47.2328 452.191 -60.8476 452.191 -74.4624 452.191C-75.7884 452.191 -76.6343 451.675 -77.023 450.633C-77.0115 446.119 -77.0115 441.587 -77.0115 437.054ZM-53.9887 436.825C-60.779 436.825 -67.5807 436.825 -74.3709 436.825C-75.2625 436.825 -75.4912 437.016 -75.4912 437.752C-75.4912 441.835 -75.4912 445.918 -75.4912 449.992C-75.4912 450.738 -75.2854 450.919 -74.3709 450.919C-60.8133 450.919 -47.2557 450.919 -33.698 450.919C-32.7721 450.919 -32.5663 450.747 -32.5663 449.963C-32.5663 445.89 -32.5663 441.826 -32.5663 437.752C-32.5663 436.968 -32.7607 436.806 -33.698 436.806C-40.454 436.825 -47.2214 436.825 -53.9887 436.825Z" fill="#BDBDBD"/>
<path d="M-51.7251 458.856C-51.7366 459.42 -51.9195 459.879 -52.331 460.223C-52.7082 460.539 -53.1312 460.826 -53.5656 461.074C-53.9543 461.294 -54.4915 461.16 -54.6973 460.845C-54.9145 460.529 -54.7887 460.252 -54.3543 459.994C-54.1029 459.85 -53.8514 459.717 -53.6342 459.544C-53.1312 459.152 -53.1312 458.76 -53.6456 458.397C-54.08 458.091 -54.5944 457.871 -55.0174 457.555C-55.3946 457.278 -55.7604 456.963 -56.0119 456.609C-56.5035 455.901 -56.412 455.165 -55.7947 454.543C-55.4175 454.161 -54.9031 453.855 -54.4001 453.559C-54.0457 453.348 -53.6685 453.444 -53.4627 453.712C-53.2341 454.008 -53.3027 454.352 -53.6227 454.582C-53.8971 454.773 -54.1829 454.955 -54.4344 455.175C-54.8916 455.576 -54.8688 455.949 -54.3658 456.303C-54.0457 456.523 -53.6799 456.695 -53.3255 456.877C-52.4339 457.364 -51.7937 457.986 -51.7251 458.856Z" fill="#BDBDBD"/>
<path d="M-62.3908 462.461C-62.8252 462.432 -63.0767 462.298 -63.191 461.992C-63.3054 461.696 -63.1567 461.485 -62.871 461.323C-62.5966 461.17 -62.3223 461.017 -62.0708 460.835C-61.5678 460.453 -61.5564 460.061 -62.0822 459.688C-62.5395 459.372 -63.0653 459.124 -63.534 458.808C-64.2999 458.292 -64.8257 457.661 -64.7228 456.781C-64.6314 456.016 -63.5226 454.945 -62.6423 454.773C-62.2765 454.696 -62.0022 454.811 -61.8421 455.108C-61.6821 455.385 -61.7164 455.634 -62.025 455.844C-62.3451 456.064 -62.6766 456.284 -62.9624 456.542C-63.3282 456.886 -63.3168 457.221 -62.9053 457.527C-62.5966 457.756 -62.2079 457.909 -61.8879 458.129C-61.4192 458.454 -60.9162 458.76 -60.5733 459.171C-59.9903 459.86 -60.0017 460.634 -60.6304 461.304C-61.0191 461.715 -61.5678 462.021 -62.0593 462.365C-62.1394 462.442 -62.3108 462.442 -62.3908 462.461Z" fill="#BDBDBD"/>
<path d="M-45.5408 462.528C-45.9638 462.442 -46.2153 462.298 -46.341 462.002C-46.4553 461.705 -46.3182 461.495 -46.0209 461.332C-45.7695 461.189 -45.518 461.065 -45.2893 460.893C-44.672 460.443 -44.672 460.061 -45.3122 459.621C-45.7123 459.344 -46.181 459.133 -46.5811 458.856C-46.8783 458.655 -47.1641 458.426 -47.3927 458.167C-48.0672 457.393 -48.0557 456.475 -47.3013 455.758C-46.9583 455.423 -46.5125 455.146 -46.0781 454.897C-45.6666 454.658 -45.2665 454.725 -45.0493 454.993C-44.8092 455.289 -44.9007 455.653 -45.2665 455.911C-45.5523 456.112 -45.8495 456.312 -46.0895 456.542C-46.4439 456.886 -46.4325 457.23 -46.0324 457.527C-45.7009 457.775 -45.3122 457.957 -44.9235 458.158C-44.1805 458.55 -43.5632 459.038 -43.3689 459.774C-43.1174 460.701 -43.6318 461.399 -44.4663 461.954C-44.7978 462.184 -45.1865 462.346 -45.5408 462.528Z" fill="#BDBDBD"/>
<path d="M-53.9772 448.357C-47.77 448.357 -41.5628 448.357 -35.3441 448.357C-35.1383 448.357 -34.9211 448.366 -34.7154 448.385C-34.3038 448.424 -34.1324 448.663 -34.0981 448.978C-34.0638 449.303 -34.3267 449.552 -34.7154 449.609C-34.8868 449.638 -35.0697 449.638 -35.2526 449.638C-47.7586 449.638 -60.2759 449.638 -72.7819 449.638C-73.5935 449.638 -73.925 449.456 -73.9364 449.017C-73.9479 448.558 -73.6049 448.357 -72.7819 448.357C-66.5175 448.357 -60.2416 448.357 -53.9772 448.357Z" fill="#BDBDBD"/>
<path d="M-54.023 447.075C-60.2531 447.075 -66.4718 447.075 -72.7019 447.075C-72.9076 447.075 -73.1248 447.075 -73.3306 447.056C-73.7421 447.018 -73.9365 446.779 -73.9365 446.463C-73.9479 446.148 -73.7764 445.899 -73.3649 445.842C-73.1934 445.813 -73.0105 445.804 -72.8276 445.804C-60.2874 445.804 -47.7472 445.804 -35.2069 445.804C-35.1498 445.804 -35.0926 445.804 -35.024 445.804C-34.4067 445.823 -34.0752 446.052 -34.0981 446.463C-34.1095 446.865 -34.4182 447.075 -35.024 447.075C-37.9162 447.075 -40.7969 447.075 -43.689 447.075C-47.1413 447.075 -50.5821 447.075 -54.023 447.075Z" fill="#BDBDBD"/>
<path d="M-54.0116 440.028C-53.0971 440.028 -52.194 440.028 -51.2795 440.028C-51.0966 440.028 -50.9137 440.028 -50.7422 440.066C-50.3878 440.133 -50.2164 440.353 -50.2049 440.64C-50.1935 440.937 -50.3307 441.185 -50.7079 441.271C-50.8451 441.3 -51.0051 441.319 -51.1537 441.319C-53.0628 441.319 -54.9718 441.329 -56.8809 441.31C-57.1438 441.31 -57.4981 441.233 -57.6353 441.09C-57.7839 440.927 -57.8411 440.602 -57.7496 440.411C-57.6696 440.239 -57.3267 440.076 -57.098 440.066C-56.0692 440.009 -55.0404 440.038 -54.0116 440.028Z" fill="#BDBDBD"/>
</g>
<defs>
<clipPath id="clip0_22_190">
<rect width="45.977" height="26.9841" fill="white"/>
</clipPath>
</defs>
</svg>
