<svg width="62" height="66" viewBox="0 0 62 66" fill="none" xmlns="http://www.w3.org/2000/svg">
<g clip-path="url(#clip0_5_107)">
<path d="M61.4788 32.9355C61.4788 35.2559 59.8903 37.0734 58.0899 37.0734H54.701L54.7752 57.7113C54.7752 58.0723 54.754 58.4074 54.7222 58.7555V60.8438C54.7222 63.6926 52.8266 66 50.4861 66H48.7917C48.6752 66 48.5587 65.884 48.4422 65.9871C48.2939 65.884 48.1457 66 47.9974 66H42.0139C39.6734 66 37.7778 63.6926 37.7778 60.8438V49.5C37.7778 47.2184 36.2634 45.375 34.3889 45.375H27.6111C25.7366 45.375 24.2222 47.2184 24.2222 49.5V60.8438C24.2222 63.6926 22.3266 66 19.9861 66H14.0661C13.9073 66 13.7484 65.9871 13.5896 65.9742C13.4625 65.9871 13.3354 66 13.2083 66H11.5139C9.1745 66 7.27778 63.6926 7.27778 60.8438V46.4062C7.27778 46.2902 7.28095 46.1613 7.28731 46.0453V37.0734H3.89418C1.98476 37.0734 0.5 35.2559 0.5 32.9355C0.5 31.7754 0.818132 30.7441 1.56009 29.8418L28.7125 1.03331C29.4538 0.129164 30.301 0 31.0424 0C31.7837 0 32.6309 0.258328 33.2769 0.904148L60.3139 29.8418C61.1611 30.7441 61.5953 31.7754 61.4788 32.9355Z" fill="#FFCC3F"/>
</g>
<defs>
<clipPath id="clip0_5_107">
<rect width="61" height="66" fill="white" transform="translate(0.5)"/>
</clipPath>
</defs>
</svg>
