<svg width="40" height="37" viewBox="0 0 40 37" fill="none" xmlns="http://www.w3.org/2000/svg">
<path d="M30 12.0278V23.7046C29.0468 23.1964 27.9386 22.9929 26.8474 23.1256C25.7561 23.2582 24.7427 23.7197 23.9645 24.4384C23.1862 25.1571 22.6864 26.0929 22.5428 27.1006C22.3991 28.1083 22.6196 29.1317 23.1699 30.0119C23.7203 30.8921 24.5698 31.5801 25.5867 31.969C26.6036 32.3579 27.731 32.4262 28.7942 32.1631C29.8574 31.9 30.7968 31.3203 31.4668 30.5139C32.1369 29.7075 32.5 28.7195 32.5 27.7031V4.44635C32.5004 4.15001 32.4235 3.85794 32.276 3.5948C32.1284 3.33166 31.9144 3.10518 31.6521 2.93448C31.3897 2.76379 31.0868 2.65388 30.7688 2.61406C30.4508 2.57423 30.1271 2.60566 29.825 2.70567L13.825 7.98312C13.4371 8.11154 13.1017 8.34745 12.8645 8.65861C12.6273 8.96977 12.5 9.34098 12.5 9.72149V26.0109C11.5469 25.5028 10.4388 25.2992 9.34767 25.4318C8.25651 25.5644 7.2432 26.0257 6.46489 26.7443C5.68658 27.4629 5.18675 28.3985 5.0429 29.4061C4.89905 30.4136 5.11923 31.4369 5.66929 32.3172C6.21935 33.1974 7.06855 33.8855 8.08522 34.2747C9.10189 34.6639 10.2292 34.7325 11.2924 34.4698C12.3556 34.2071 13.2952 33.6279 13.9655 32.8218C14.6359 32.0158 14.9995 31.028 15 30.0117V16.9751L30 12.0301V12.0278ZM30 9.57605L15 14.5211V10.0447L30 5.09737V9.57374V9.57605ZM27.5 25.3945C28.1631 25.3945 28.7989 25.6378 29.2678 26.0707C29.7366 26.5036 30 27.0908 30 27.7031C30 28.3154 29.7366 28.9026 29.2678 29.3355C28.7989 29.7685 28.1631 30.0117 27.5 30.0117C26.837 30.0117 26.2011 29.7685 25.7322 29.3355C25.2634 28.9026 25 28.3154 25 27.7031C25 27.0908 25.2634 26.5036 25.7322 26.0707C26.2011 25.6378 26.837 25.3945 27.5 25.3945V25.3945ZM10 27.7031C10.663 27.7031 11.2989 27.9464 11.7678 28.3793C12.2366 28.8122 12.5 29.3994 12.5 30.0117C12.5 30.624 12.2366 31.2112 11.7678 31.6441C11.2989 32.0771 10.663 32.3203 10 32.3203C9.33697 32.3203 8.70108 32.0771 8.23224 31.6441C7.7634 31.2112 7.50001 30.624 7.50001 30.0117C7.50001 29.3994 7.7634 28.8122 8.23224 28.3793C8.70108 27.9464 9.33697 27.7031 10 27.7031V27.7031Z" fill="#BDBDBD"/>
</svg>
