<svg width="47" height="43" viewBox="0 0 47 43" fill="none" xmlns="http://www.w3.org/2000/svg">
<g clip-path="url(#clip0_22_170)">
<path d="M21.2025 20.1045C21.2025 16.4102 21.2025 12.7506 21.2025 9.24158C20.8481 8.85941 20.519 8.60463 20.3038 8.28036C19.4557 7.06436 18.6076 5.83679 17.7975 4.59763C17.0506 3.4627 16.7089 2.21196 16.6709 0.88015C16.6582 0.25478 16.924 0 17.5949 0C21.5316 0 25.4557 0 29.3924 0C30.038 0 30.3165 0.25478 30.3038 0.845407C30.2785 2.15405 29.9367 3.40479 29.2152 4.52814C28.3291 5.90627 27.3797 7.26124 26.443 8.61621C26.3038 8.81308 26.038 8.94047 25.7722 9.14893C25.7722 12.739 25.7722 16.3986 25.7722 20.0582C26.3038 20.1624 26.8481 20.2203 27.3418 20.3708C27.8354 20.5098 28.2911 20.7414 28.8228 20.9615C29.7848 20.174 30.7975 19.3401 31.7975 18.5179C33.6456 17.0008 35.4937 15.4837 37.3291 13.9666C38.7721 12.7738 40.4304 12.2989 42.3544 12.5885C43.2405 12.7274 44.1266 12.8548 45.0127 13.0054C46.038 13.1791 46.7468 13.8276 46.9494 14.7425C47.1392 15.5879 46.7215 16.4797 45.8608 16.9776C44.3291 17.8578 42.7721 18.7148 41.2152 19.5718C37.962 21.3784 34.7215 23.1966 31.4557 24.9916C31.1392 25.1653 31.038 25.3622 31.0506 25.6865C31.0633 26.0339 31.3671 26.0108 31.5696 26.0918C34.6709 27.2383 37.7721 28.3617 40.8734 29.5082C42.1013 29.9599 42.6835 30.9674 42.3418 32.0328C42.0886 32.8435 41.481 33.3415 40.5823 33.492C39.4937 33.6773 38.4051 33.8626 37.3164 33.9784C35.6835 34.1521 34.1899 33.7468 32.8481 32.8898C31.6962 32.1602 30.5316 31.4306 29.3924 30.6894C29.1519 30.5389 29.0127 30.5389 28.7848 30.7126C27.6709 31.5464 26.3671 31.9518 24.9367 31.9402C23.6456 31.9286 22.3418 31.9518 21.0633 31.8475C20.3671 31.7896 19.6835 31.5001 18.9747 31.3032C18.9747 31.3843 18.962 31.4885 18.962 31.6043C18.962 33.9437 18.962 36.283 18.9494 38.6224C18.9494 38.8887 19.0253 39.0161 19.2911 39.1551C20.2405 39.6183 20.6709 40.5796 20.3924 41.506C20.1139 42.4093 19.2025 43.0463 18.1772 43.0347C17.1519 43.0231 16.2658 42.3746 16.0127 41.4597C15.7595 40.5448 16.1899 39.6068 17.1392 39.1551C17.3924 39.0393 17.4684 38.9119 17.4684 38.6571C17.4557 35.9009 17.4684 33.133 17.4557 30.3768C17.4557 30.1799 17.3418 29.9714 17.2405 29.7977C16.9367 29.2534 16.557 28.7207 16.3038 28.1532C16.1646 27.8637 16.0506 27.7711 15.7089 27.7711C11.3038 27.7826 6.89873 27.7826 2.48101 27.7711C1 27.7363 -0.0759492 26.7519 1.8534e-07 25.5012C0.0253166 25.1306 0.139241 24.6905 0.379747 24.4126C1.53165 23.0924 2.8481 21.969 4.74684 21.6332C5.21519 21.5521 5.68354 21.5174 6.1519 21.5058C9.62025 21.4595 13.0633 21.5753 16.5063 22.0153C16.8101 22.0501 17.0253 22.0153 17.2405 21.7721C18.2785 20.6719 19.6203 20.174 21.2025 20.1045ZM26.8987 24.4242C27.519 24.5284 28.0759 24.6442 28.6203 24.7137C28.7975 24.7369 29.0253 24.7137 29.1772 24.6326C34.4304 21.7258 39.6709 18.7958 44.9114 15.889C45.2911 15.6806 45.5443 15.4026 45.4557 14.9741C45.3544 14.5456 45 14.3835 44.557 14.3256C43.8101 14.2214 43.0633 14.1171 42.3164 13.9782C40.7342 13.7002 39.4177 14.094 38.2278 15.0899C35.5063 17.3598 32.7595 19.5949 30.0253 21.8532C29 22.687 27.9747 23.5324 26.8987 24.4242ZM18.2405 1.41287C18.3291 2.37409 18.6582 3.23108 19.1899 4.04174C19.6835 4.78292 20.1899 5.51252 20.6835 6.2537C20.9873 6.70535 21.2025 7.33073 21.6456 7.56234C22.1139 7.79396 22.8101 7.64341 23.4051 7.64341C24.0506 7.64341 24.8101 7.80554 25.3038 7.56234C25.7848 7.31914 26.0253 6.64745 26.3418 6.14947C26.9494 5.223 27.5823 4.3081 28.1519 3.35847C28.5063 2.76784 28.6835 2.10773 28.7089 1.42445C25.2152 1.41287 21.7468 1.41287 18.2405 1.41287ZM23.4557 30.5852C23.4557 30.5621 23.4557 30.5389 23.4557 30.5157C23.9873 30.5157 24.5316 30.5273 25.0633 30.5157C26.962 30.481 28.6709 29.4155 29.2532 27.7711C29.7848 26.2655 29.7595 26.4161 28.2785 26.1034C25.7848 25.5707 23.2405 25.5475 20.6962 25.8023C19.7215 25.9065 18.7468 26.1497 17.7848 26.335C17.519 26.3813 17.4051 26.5203 17.4304 26.7983C17.6456 28.5007 18.9747 29.9714 20.8101 30.3536C21.6835 30.5273 22.5823 30.5157 23.4557 30.5852ZM16.0759 23.3703C16.038 23.3587 15.9367 23.3356 15.8354 23.324C12.8101 22.9766 9.75949 22.9302 6.72152 22.8607C4.58228 22.8144 3.03797 23.6598 1.73418 25.0611C1.39241 25.4317 1.44304 25.9529 1.87342 26.196C2.08861 26.3119 2.37975 26.3466 2.63291 26.3582C6.89873 26.3698 11.1519 26.3698 15.4177 26.3582C15.5696 26.3582 15.7215 26.3466 15.8481 26.335C15.924 25.3506 16 24.3894 16.0759 23.3703ZM30.1392 29.4619C31.481 30.2957 32.8354 31.1874 34.2278 31.9981C35.1772 32.5424 36.2532 32.7045 37.3671 32.5424C38.2658 32.415 39.1772 32.276 40.0759 32.1486C40.4937 32.0907 40.8608 31.9634 40.9114 31.5117C40.962 31.0716 40.6456 30.8747 40.2532 30.7358C38.5063 30.0988 36.7721 29.4619 35.0253 28.8249C33.6962 28.3385 32.3671 27.8521 31.0506 27.3773C30.7468 28.0722 30.4557 28.7323 30.1392 29.4619ZM17.4557 24.9569C19.1646 24.4589 20.9114 24.3431 22.6582 24.2852C23.3797 24.262 24.1772 24.4242 24.8101 24.1925C25.443 23.9609 25.9114 23.3587 26.4557 22.9186C26.8354 22.606 27.2152 22.2933 27.5823 21.9806C27.5696 21.9343 27.5696 21.8879 27.557 21.8416C27.0253 21.7258 26.5063 21.5289 25.9747 21.5174C24.3165 21.471 22.6582 21.471 21.0127 21.5174C19.038 21.5637 17.3924 23.1734 17.4557 24.9569ZM22.7721 9.03312C22.7721 12.739 22.7721 16.4102 22.7721 20.0813C23.2911 20.0813 23.7595 20.0813 24.2278 20.0813C24.2278 16.387 24.2278 12.7159 24.2278 9.03312C23.7342 9.03312 23.2658 9.03312 22.7721 9.03312ZM18.1899 40.2321C17.7848 40.2321 17.4304 40.5448 17.4304 40.9154C17.4304 41.286 17.7722 41.6103 18.1772 41.6103C18.5823 41.6103 18.9367 41.2976 18.9367 40.927C18.9367 40.5564 18.5949 40.2321 18.1899 40.2321Z" fill="#BDBDBD"/>
</g>
<defs>
<clipPath id="clip0_22_170">
<rect width="47" height="43" fill="white"/>
</clipPath>
</defs>
</svg>
