<svg width="32" height="34" viewBox="0 0 32 34" fill="none" xmlns="http://www.w3.org/2000/svg">
<path d="M16.414 0C16.8568 0.205615 16.9676 0.569395 16.9676 1.02807C16.9676 3.3531 16.9992 5.69395 17.015 8.01898C17.015 8.17715 17.015 8.3195 17.015 8.54093C17.2681 8.54093 17.4737 8.54093 17.6951 8.54093C18.6916 8.57256 19.3084 9.1894 19.3242 10.1858C19.3242 10.5971 19.34 11.0241 19.3242 11.4354C19.3084 11.7675 19.4033 11.894 19.7354 11.9889C21.9339 12.4951 23.9268 13.4599 25.6508 14.915C28.2764 17.1293 30.0636 19.8814 30.8386 23.2503C31.0917 24.3416 31.1708 25.4804 31.2815 26.6034C31.3448 27.2835 31.0284 27.584 30.3483 27.584C27.881 27.584 25.3978 27.584 22.9304 27.584C22.788 27.584 22.6457 27.584 22.4717 27.584C22.1712 29.5295 21.2855 31.1111 19.6247 32.1866C18.3594 33.0249 16.9517 33.3412 15.465 33.1989C12.966 32.9458 10.3246 31.2376 9.72359 27.584C9.58124 27.584 9.43889 27.584 9.28072 27.584C6.82916 27.584 4.39342 27.584 1.94186 27.584C1.1194 27.584 0.897965 27.3151 0.913782 26.4927C0.977048 24.1677 1.48318 21.9533 2.5587 19.8814C4.04545 16.987 6.21232 14.7885 9.09093 13.2859C10.2772 12.669 11.5425 12.1945 12.8553 11.9098C13.1083 11.8466 13.1874 11.7359 13.1874 11.4828C13.1716 11.0874 13.1874 10.6762 13.1874 10.2649C13.2032 9.14195 13.8043 8.52511 14.9272 8.52511C15.1012 8.52511 15.2594 8.52511 15.4966 8.52511C15.4966 8.35113 15.4966 8.20878 15.4966 8.06643C15.4808 5.70977 15.465 3.3531 15.4492 0.996441C15.4492 0.537762 15.5757 0.189798 16.0186 0C16.1609 0 16.2874 0 16.414 0ZM29.7631 25.9866C29.5259 19.5176 23.9585 12.8747 15.639 13.1435C7.96795 13.3966 2.68523 19.6916 2.51125 25.9866C11.5899 25.9866 20.6528 25.9866 29.7631 25.9866ZM20.9691 27.5998C17.7584 27.5998 14.5793 27.5998 11.4001 27.5998C11.6374 29.83 13.7094 31.6172 16.0818 31.6647C18.4701 31.7121 20.637 29.9091 20.9691 27.5998ZM14.6583 11.5935C15.7181 11.5935 16.7303 11.5935 17.7426 11.5935C17.7426 11.0874 17.7426 10.6129 17.7426 10.1226C16.6987 10.1226 15.6864 10.1226 14.6583 10.1226C14.6583 10.6129 14.6583 11.0716 14.6583 11.5935Z" fill="#BDBDBD"/>
</svg>
